<svg width="351" height="401" viewBox="0 0 351 401" fill="none" xmlns="http://www.w3.org/2000/svg">
<circle cx="176" cy="225" r="175" fill="#E33324"/>
<path d="M58.9207 150.656C58.0144 160.774 61.9318 172.052 58.9207 181.756C54.7864 195.078 47.5639 194.195 33.7853 196.487C20.7673 198.653 1 188.303 1 188.303V229C1 323.441 77.5594 400 172 400H179.134L230.497 276.146C230.497 276.146 243.057 268.931 250.168 263.052C266.375 249.653 270.979 237.589 282.407 219.948C291.751 205.524 304.264 181.756 304.264 181.756C308.454 156.314 292.789 144.108 290.604 133.742C288.418 123.375 290.604 119.775 290.604 110.826C290.604 101.877 317.925 37.7142 310.821 34.4406C303.718 31.1669 233.776 72.0877 233.776 72.0877C202.58 63.4234 184.78 61.3949 152.359 63.9035C152.359 63.9035 90.6132 -2.66097 80.2312 1.15828C69.8492 4.97754 84.6025 110.826 84.6025 110.826C84.6025 110.826 60.5711 132.23 58.9207 150.656Z" fill="black"/>
<path d="M58.9207 150.656C58.0144 160.774 61.9318 172.052 58.9207 181.756C54.7864 195.078 47.5639 194.195 33.7853 196.487C20.7673 198.653 1 188.303 1 188.303V229C1 323.441 77.5594 400 172 400H179.134L230.497 276.146C230.497 276.146 243.057 268.931 250.168 263.052C266.375 249.653 270.979 237.589 282.407 219.948C291.751 205.524 304.264 181.756 304.264 181.756C308.454 156.314 292.789 144.108 290.604 133.742C288.418 123.375 290.604 119.775 290.604 110.826C290.604 101.877 317.925 37.7142 310.821 34.4406C303.718 31.1669 233.776 72.0877 233.776 72.0877C202.58 63.4234 184.78 61.3949 152.359 63.9035C152.359 63.9035 90.6132 -2.66097 80.2312 1.15828C69.8492 4.97754 84.6025 110.826 84.6025 110.826C84.6025 110.826 60.5711 132.23 58.9207 150.656Z" stroke="url(#paint0_linear_2706_2)" stroke-width="2"/>
<path d="M58.9207 150.656C58.0144 160.774 61.9318 172.052 58.9207 181.756C54.7864 195.078 47.5639 194.195 33.7853 196.487C20.7673 198.653 1 188.303 1 188.303V229C1 323.441 77.5594 400 172 400H179.134L230.497 276.146C230.497 276.146 243.057 268.931 250.168 263.052C266.375 249.653 270.979 237.589 282.407 219.948C291.751 205.524 304.264 181.756 304.264 181.756C308.454 156.314 292.789 144.108 290.604 133.742C288.418 123.375 290.604 119.775 290.604 110.826C290.604 101.877 317.925 37.7142 310.821 34.4406C303.718 31.1669 233.776 72.0877 233.776 72.0877C202.58 63.4234 184.78 61.3949 152.359 63.9035C152.359 63.9035 90.6132 -2.66097 80.2312 1.15828C69.8492 4.97754 84.6025 110.826 84.6025 110.826C84.6025 110.826 60.5711 132.23 58.9207 150.656Z" stroke="url(#paint1_linear_2706_2)" stroke-width="2"/>
<path d="M158.766 185.258C140.098 193.425 139 203.77 139 203.77C139 203.77 144.831 229.25 152.177 249.508C157.581 264.408 167.551 287.078 167.551 287.078L177.434 282.178V289.256C183.437 292.013 187.816 292.129 196.651 290.889L205.985 288.167L200.494 284.9C200.494 284.9 218.654 252.039 231.242 231.54C241.976 214.058 272.97 192.336 259.793 187.436C246.615 182.535 252.655 185.258 252.655 185.258C252.655 185.258 234.536 225.551 236.732 217.383C238.928 209.215 239.478 180.902 239.478 180.902C226.795 177.059 221.093 175.904 207.632 177.09C207.632 177.09 195.004 222.284 195.004 214.661C195.004 207.037 191.16 177.09 191.16 177.09C191.16 177.09 177.434 177.09 158.766 185.258Z" fill="#E33324" stroke="black"/>
<path d="M185.558 130.23C185.558 130.23 185.518 130.137 185.442 129.964C183.212 128.091 154.09 121.729 150.794 118.904C147.318 115.923 145 104 145 104C145 104 165.472 104.822 174.549 112.942C179.948 117.772 184.655 128.17 185.442 129.964C185.565 130.067 185.606 130.156 185.558 130.23Z" fill="#E33324"/>
<path d="M253.927 130.23C249.939 133.057 246.395 140.365 246.395 140.365C246.395 140.365 271.888 144.538 275.365 143.942C278.841 143.346 280 133.211 280 133.211C280 133.211 262.363 124.25 253.927 130.23Z" fill="#E33324"/>
<path d="M185.558 130.23C185.558 130.23 185.518 130.137 185.442 129.964C183.212 128.091 154.09 121.729 150.794 118.904C147.318 115.923 145 104 145 104C145 104 165.472 104.822 174.549 112.942C179.948 117.772 184.655 128.17 185.442 129.964C185.565 130.067 185.606 130.156 185.558 130.23Z" stroke="black"/>
<path d="M253.927 130.23C249.939 133.057 246.395 140.365 246.395 140.365C246.395 140.365 271.888 144.538 275.365 143.942C278.841 143.346 280 133.211 280 133.211C280 133.211 262.363 124.25 253.927 130.23Z" stroke="black"/>
<defs>
<linearGradient id="paint0_linear_2706_2" x1="263.5" y1="97.5" x2="273.5" y2="83" gradientUnits="userSpaceOnUse">
<stop offset="0.125" stop-opacity="0"/>
<stop offset="1" stop-color="#E33324"/>
</linearGradient>
<linearGradient id="paint1_linear_2706_2" x1="127" y1="93" x2="115.5" y2="57.5" gradientUnits="userSpaceOnUse">
<stop stop-opacity="0"/>
<stop offset="1" stop-color="#E33324"/>
</linearGradient>
</defs>
</svg>
